<svg id="kity_svg_6" xmlns="http://www.w3.org/2000/svg" xmlns:xlink="http://www.w3.org/1999/xlink" version="1.1" width="535" height="314" style="background: rgba(0, 0, 0, 0); visibility: visible;" viewBox="0 0 535 314"><defs id="kity_defs_7"><linearGradient id="kity_linearGradient_17" x1="0" y1="0" x2="0" y2="1"><stop id="kity_stop_18" offset="0" stop-color="rgb(255, 255, 255)"></stop><stop id="kity_stop_19" offset="1" stop-color="rgb(204, 204, 204)"></stop></linearGradient><marker id="kity_marker_2" orient="auto" refX="6" refY="0" viewBox="-7 -7 14 14" markerWidth="7" markerHeight="7" markerUnits="userSpaceOnUse"><path id="kity_path_3" fill="rgb(115, 161, 191)" stroke="none" d="M6,0A6,6,0,1,1,-6,0A6,6,0,1,1,6,0"></path></marker></defs><g id="kity_g_8"><g id="minder1" text-rendering="optimize-speed"><g id="minder_connect_group1"><path id="kity_path_31" fill="none" stroke="rgb(115, 161, 191)" stroke-width="1" d="M77.5000017657876,148.50000277906656A83,91,0,0,1,160.5000017657876,57.50000277906656"></path><path id="kity_path_39" fill="none" stroke="rgb(115, 161, 191)" stroke-width="1" d="M77.5000017657876,148.50000277906656A86,83,0,0,0,163.5000017657876,231.50000277906656"></path><path id="kity_path_86" fill="none" stroke="rgb(115, 161, 191)" stroke-width="1" d="M260.5000017657876,57.50000277906656C280.5000017657876,57.50000277906656,280.5000017657876,31.500002779066563,300.5000017657876,31.500002779066563"></path><path id="kity_path_87" fill="none" stroke="rgb(115, 161, 191)" stroke-width="1" d="M260.5000017657876,57.50000277906656C280.5000017657876,57.50000277906656,280.5000017657876,83.50000277906656,300.5000017657876,83.50000277906656"></path><path id="kity_path_88" fill="none" stroke="rgb(115, 161, 191)" stroke-width="1" d="M262.5000017657876,231.50000277906656C282.5000017657876,231.50000277906656,282.5000017657876,179.50000277906656,302.5000017657876,179.50000277906656"></path><path id="kity_path_89" fill="none" stroke="rgb(115, 161, 191)" stroke-width="1" d="M262.5000017657876,231.50000277906656C282.5000017657876,231.50000277906656,282.5000017657876,231.50000277906656,302.5000017657876,231.50000277906656"></path><path id="kity_path_90" fill="none" stroke="rgb(115, 161, 191)" stroke-width="1" d="M262.5000017657876,231.50000277906656C282.5000017657876,231.50000277906656,282.5000017657876,283.50000277906656,302.5000017657876,283.50000277906656"></path></g><g id="minder_node1"><path id="node_outline1" fill="rgb(115, 161, 191)" stroke="rgb(115, 161, 191)" d="M25.5000017657876,128.50000277906656h104a5,5,0,0,1,5,5v30a5,5,0,0,1,-5,5h-104a5,5,0,0,1,-5,-5v-30a5,5,0,0,1,5,-5z" stroke-width="3"></path><g id="node_text1" fill="white"><text id="kity_text_22" text-rendering="inherit" font-size="16" dy=".8em" y="138.10000274330378" x="44.5000017657876">所有变量</text></g></g><g id="kity_g_12" display="none"><path id="kity_path_13" fill="none" stroke="none" d="M44.5000017657876,148.50000277906656h0v0h0z"></path></g><g id="kity_g_14" display="none"><path id="kity_path_15" fill="none" stroke="none" d="M44.5000017657876,148.50000277906656h0v0h0z"></path><path id="kity_path_16" fill="none" stroke="none"></path></g><g id="minder_node2" opacity="1"><g id="node_expander1" style="cursor: pointer;"><path id="kity_path_36" fill="white" stroke="gray" d="M161.5000034198165,57.500001423060894A6,6,0,1,1,149.5000034198165,57.500001423060894A6,6,0,1,1,161.5000034198165,57.500001423060894"></path><path id="kity_path_37" fill="none" stroke="gray" d="M151.0000034198165,57.500001423060894L160.0000034198165,57.500001423060894"></path></g><path id="node_outline2" fill="rgb(238, 243, 246)" stroke="rgb(115, 161, 191)" d="M165.50000382214785,44.500001423060894h92a3,3,0,0,1,3,3v20a3,3,0,0,1,-3,3h-92a3,3,0,0,1,-3,-3v-20a3,3,0,0,1,3,-3z" stroke-width="1"></path><g id="node_text2" fill="black"><text id="kity_text_33" text-rendering="inherit" font-size="14" dy=".8em" y="48.400001391768456" x="182.50000382214785">成员变量</text></g></g><g id="minder_node3" opacity="1"><g id="node_expander2" style="cursor: pointer;"><path id="kity_path_44" fill="white" stroke="gray" d="M164.50000346451998,231.50000401586294A6,6,0,1,1,152.50000346451998,231.50000401586294A6,6,0,1,1,164.50000346451998,231.50000401586294"></path><path id="kity_path_45" fill="none" stroke="gray" d="M154.00000346451998,231.50000401586294L163.00000346451998,231.50000401586294"></path></g><path id="node_outline3" fill="rgb(238, 243, 246)" stroke="rgb(115, 161, 191)" d="M168.50000386685133,218.50000401586294h91a3,3,0,0,1,3,3v20a3,3,0,0,1,-3,3h-91a3,3,0,0,1,-3,-3v-20a3,3,0,0,1,3,-3z" stroke-width="1"></path><g id="node_text3" fill="black"><text id="kity_text_41" text-rendering="inherit" font-size="14" dy=".8em" y="222.4000039845705" x="185.50000386685133">局部变量</text></g></g><g id="minder_node4"><g id="node_expander3" style="cursor: pointer;" display="none"><path id="kity_path_52" fill="white" stroke="gray" d="M300.5000054910779,31.500001035630703A6,6,0,1,1,288.5000054910779,31.500001035630703A6,6,0,1,1,300.5000054910779,31.500001035630703"></path><path id="kity_path_53" fill="none" stroke="gray"></path></g><path id="node_outline4" fill="none" stroke="none" d="M305.5000057294965,20.500001035630703h158a5,5,0,0,1,5,5v12a5,5,0,0,1,-5,5h-158a5,5,0,0,1,-5,-5v-12a5,5,0,0,1,5,-5z" stroke-width="3"></path><g id="node_text4" fill="black"><text id="kity_text_49" text-rendering="inherit" font-size="12" dy=".8em" y="23.700001008808613" x="310.5000057294965">实例变量（不以static修饰）</text></g></g><g id="minder_node5"><g id="node_expander4" style="cursor: pointer;" display="none"><path id="kity_path_60" fill="white" stroke="gray" d="M300.5000054910779,83.50000181049109A6,6,0,1,1,288.5000054910779,83.50000181049109A6,6,0,1,1,300.5000054910779,83.50000181049109"></path><path id="kity_path_61" fill="none" stroke="gray"></path></g><path id="node_outline5" fill="none" stroke="none" d="M305.5000057294965,72.50000181049109h135a5,5,0,0,1,5,5v12a5,5,0,0,1,-5,5h-135a5,5,0,0,1,-5,-5v-12a5,5,0,0,1,5,-5z" stroke-width="3"></path><g id="node_text5" fill="black"><text id="kity_text_57" text-rendering="inherit" font-size="12" dy=".8em" y="75.700001783669" x="310.5000057294965">类变量（以static修饰）</text></g></g><g id="minder_node6"><g id="node_expander5" style="cursor: pointer;" display="none"><path id="kity_path_68" fill="white" stroke="gray" d="M302.5000055208802,179.50000324100256A6,6,0,1,1,290.5000055208802,179.50000324100256A6,6,0,1,1,302.5000055208802,179.50000324100256"></path><path id="kity_path_69" fill="none" stroke="gray"></path></g><path id="node_outline6" fill="none" stroke="none" d="M307.5000057592988,168.50000324100256h179a5,5,0,0,1,5,5v12a5,5,0,0,1,-5,5h-179a5,5,0,0,1,-5,-5v-12a5,5,0,0,1,5,-5z" stroke-width="3"></path><g id="node_text6" fill="black"><text id="kity_text_65" text-rendering="inherit" font-size="12" dy=".8em" y="171.70000321418047" x="312.5000057592988">形参（方法签名中定义的变量）</text></g></g><g id="minder_node7"><g id="node_expander6" style="cursor: pointer;" display="none"><path id="kity_path_76" fill="white" stroke="gray" d="M302.5000055208802,231.50000401586294A6,6,0,1,1,290.5000055208802,231.50000401586294A6,6,0,1,1,302.5000055208802,231.50000401586294"></path><path id="kity_path_77" fill="none" stroke="gray"></path></g><path id="node_outline7" fill="none" stroke="none" d="M307.5000057592988,220.50000401586294h179a5,5,0,0,1,5,5v12a5,5,0,0,1,-5,5h-179a5,5,0,0,1,-5,-5v-12a5,5,0,0,1,5,-5z" stroke-width="3"></path><g id="node_text7" fill="black"><text id="kity_text_73" text-rendering="inherit" font-size="12" dy=".8em" y="223.70000398904085" x="312.5000057592988">方法局部变量（在方法内定义）</text></g></g><g id="minder_node8"><g id="node_expander7" style="cursor: pointer;" display="none"><path id="kity_path_84" fill="white" stroke="gray" d="M302.5000055208802,283.5000047907233A6,6,0,1,1,290.5000055208802,283.5000047907233A6,6,0,1,1,302.5000055208802,283.5000047907233"></path><path id="kity_path_85" fill="none" stroke="gray"></path></g><path id="node_outline8" fill="none" stroke="none" d="M307.5000057592988,272.5000047907233h203a5,5,0,0,1,5,5v12a5,5,0,0,1,-5,5h-203a5,5,0,0,1,-5,-5v-12a5,5,0,0,1,5,-5z" stroke-width="3"></path><g id="node_text8" fill="black"><text id="kity_text_81" text-rendering="inherit" font-size="12" dy=".8em" y="275.70000476390123" x="312.5000057592988">代码块局部变量（在代码块内定义）</text></g></g></g></g></svg>