<svg id="kity_svg_6" xmlns="http://www.w3.org/2000/svg" xmlns:xlink="http://www.w3.org/1999/xlink" version="1.1" width="520" height="486" style="background: rgba(0, 0, 0, 0); visibility: visible;" viewBox="0 0 520 486"><defs id="kity_defs_7"><linearGradient id="kity_linearGradient_17" x1="0" y1="0" x2="0" y2="1"><stop id="kity_stop_18" offset="0" stop-color="rgb(255, 255, 255)"></stop><stop id="kity_stop_19" offset="1" stop-color="rgb(204, 204, 204)"></stop></linearGradient><marker id="kity_marker_2" orient="auto" refX="6" refY="0" viewBox="-7 -7 14 14" markerWidth="7" markerHeight="7" markerUnits="userSpaceOnUse"><path id="kity_path_3" fill="rgb(115, 161, 191)" stroke="none" d="M6,0A6,6,0,1,1,-6,0A6,6,0,1,1,6,0"></path></marker></defs><g id="kity_g_8"><g id="minder1" text-rendering="optimize-speed"><g id="minder_connect_group1"><path id="kity_path_31" fill="none" stroke="rgb(115, 161, 191)" stroke-width="1" d="M65.00000672787428,285.5000044479966A56.5,139,0,0,1,121.50000672787428,146.50000444799662"></path><path id="kity_path_33" fill="none" stroke="rgb(115, 161, 191)" stroke-width="1" d="M248.50000672787428,146.50000444799662C256.5000067278743,146.50000444799662,256.5000067278743,68.50000444799662,264.5000067278743,68.50000444799662"></path><path id="kity_path_35" fill="none" stroke="rgb(115, 161, 191)" stroke-width="1" d="M324.5000067278743,68.50000444799662C332.5000067278743,68.50000444799662,332.5000067278743,29.500004447996616,340.5000067278743,29.500004447996616"></path><path id="kity_path_37" fill="none" stroke="rgb(115, 161, 191)" stroke-width="1" d="M324.5000067278743,68.50000444799662C332.5000067278743,68.50000444799662,332.5000067278743,55.500004447996616,340.5000067278743,55.500004447996616"></path><path id="kity_path_39" fill="none" stroke="rgb(115, 161, 191)" stroke-width="1" d="M324.5000067278743,68.50000444799662C332.5000067278743,68.50000444799662,332.5000067278743,81.50000444799662,340.5000067278743,81.50000444799662"></path><path id="kity_path_41" fill="none" stroke="rgb(115, 161, 191)" stroke-width="1" d="M324.5000067278743,68.50000444799662C332.5000067278743,68.50000444799662,332.5000067278743,107.50000444799662,340.5000067278743,107.50000444799662"></path><path id="kity_path_43" fill="none" stroke="rgb(115, 161, 191)" stroke-width="1" d="M248.50000672787428,146.50000444799662C256.5000067278743,146.50000444799662,256.5000067278743,146.50000444799662,264.5000067278743,146.50000444799662"></path><path id="kity_path_45" fill="none" stroke="rgb(115, 161, 191)" stroke-width="1" d="M324.5000067278743,146.50000444799662C332.5000067278743,146.50000444799662,332.5000067278743,133.50000444799662,340.5000067278743,133.50000444799662"></path><path id="kity_path_47" fill="none" stroke="rgb(115, 161, 191)" stroke-width="1" d="M324.5000067278743,146.50000444799662C332.5000067278743,146.50000444799662,332.5000067278743,159.50000444799662,340.5000067278743,159.50000444799662"></path><path id="kity_path_49" fill="none" stroke="rgb(115, 161, 191)" stroke-width="1" d="M248.50000672787428,146.50000444799662C256.5000067278743,146.50000444799662,256.5000067278743,185.50000444799662,264.5000067278743,185.50000444799662"></path><path id="kity_path_51" fill="none" stroke="rgb(115, 161, 191)" stroke-width="1" d="M323.5000067278743,185.50000444799662C331.5000067278743,185.50000444799662,331.5000067278743,185.50000444799662,339.5000067278743,185.50000444799662"></path><path id="kity_path_53" fill="none" stroke="rgb(115, 161, 191)" stroke-width="1" d="M248.50000672787428,146.50000444799662C256.5000067278743,146.50000444799662,256.5000067278743,224.50000444799662,264.5000067278743,224.50000444799662"></path><path id="kity_path_55" fill="none" stroke="rgb(115, 161, 191)" stroke-width="1" d="M324.5000067278743,224.50000444799662C332.5000067278743,224.50000444799662,332.5000067278743,224.50000444799662,340.5000067278743,224.50000444799662"></path><path id="kity_path_57" fill="none" stroke="rgb(115, 161, 191)" stroke-width="1" d="M65.00000672787428,285.5000044479966A58.5,146,0,0,0,123.50000672787428,431.5000044479966"></path><path id="kity_path_143" fill="none" stroke="rgb(115, 161, 191)" stroke-width="1" d="M447.5000067278743,224.50000444799662C455.5000067278743,224.50000444799662,455.5000067278743,211.50000444799662,463.5000067278743,211.50000444799662"></path><path id="kity_path_151" fill="none" stroke="rgb(115, 161, 191)" stroke-width="1" d="M447.5000067278743,224.50000444799662C455.5000067278743,224.50000444799662,455.5000067278743,237.50000444799662,463.5000067278743,237.50000444799662"></path><path id="kity_path_159" fill="none" stroke="rgb(115, 161, 191)" stroke-width="1" d="M249.50000672787428,431.5000044479966C257.5000067278743,431.5000044479966,257.5000067278743,405.5000044479966,265.5000067278743,405.5000044479966"></path><path id="kity_path_167" fill="none" stroke="rgb(115, 161, 191)" stroke-width="1" d="M249.50000672787428,431.5000044479966C257.5000067278743,431.5000044479966,257.5000067278743,431.5000044479966,265.5000067278743,431.5000044479966"></path><path id="kity_path_175" fill="none" stroke="rgb(115, 161, 191)" stroke-width="1" d="M249.50000672787428,431.5000044479966C257.5000067278743,431.5000044479966,257.5000067278743,457.5000044479966,265.5000067278743,457.5000044479966"></path><path id="kity_path_183" fill="none" stroke="rgb(115, 161, 191)" stroke-width="1" d="M338.5000067278743,405.5000044479966C346.5000067278743,405.5000044479966,346.5000067278743,405.5000044479966,354.5000067278743,405.5000044479966"></path></g><g id="minder_node1"><path id="kity_path_192" fill="rgba(0, 0, 0, .25)" stroke="none" d="M31.50000672787428,273.5000044479966h106a5,5,0,0,1,5,5v24a5,5,0,0,1,-5,5h-106a5,5,0,0,1,-5,-5v-24a5,5,0,0,1,5,-5z" display="none"></path><path id="node_outline1" fill="rgb(115, 161, 191)" stroke="rgb(115, 161, 191)" d="M25.50000672787428,271.5000044479966h79a5,5,0,0,1,5,5v18a5,5,0,0,1,-5,5h-79a5,5,0,0,1,-5,-5v-18a5,5,0,0,1,5,-5z" stroke-width="3"></path><g id="node_text1" fill="white"><text id="kity_text_22" text-rendering="inherit" font-size="16" dy=".8em" y="275.10000441223383" x="32.50000672787428">数据类型</text></g></g><g id="kity_g_12"><path id="kity_path_13" fill="none" stroke="none" d="M32.50000672787428,285.5000044479966h0v0h0z"></path></g><g id="kity_g_14"><path id="kity_path_15" fill="none" stroke="none" d="M32.50000672787428,285.5000044479966h0v0h0z"></path><path id="kity_path_16" fill="none" stroke="none"></path></g><g id="minder_node2"><path id="kity_path_190" fill="rgba(0, 0, 0, .25)" stroke="none" d="M142.50000838190317,139.5000023767352h106a5,5,0,0,1,5,5v14a5,5,0,0,1,-5,5h-106a5,5,0,0,1,-5,-5v-14a5,5,0,0,1,5,-5z" display="none"></path><g id="node_expander13" style="cursor: pointer;"><path id="kity_path_137" fill="white" stroke="gray" d="M122.50000797957182,146.5000023767352A6,6,0,1,1,110.50000797957182,146.5000023767352A6,6,0,1,1,122.50000797957182,146.5000023767352"></path><path id="kity_path_138" fill="none" stroke="gray" d="M112.00000797957182,146.5000023767352L121.00000797957182,146.5000023767352"></path></g><path id="node_outline14" fill="rgb(238, 243, 246)" stroke="rgb(115, 161, 191)" d="M126.50000838190317,133.5000023767352h119a3,3,0,0,1,3,3v20a3,3,0,0,1,-3,3h-119a3,3,0,0,1,-3,-3v-20a3,3,0,0,1,3,-3z" stroke-width="1"></path><g id="node_text14" fill="black"><text id="kity_text_83" text-rendering="inherit" font-size="14" dy=".8em" y="137.40000234544277" x="143.50000838190317">基本数据类型</text></g></g><g id="minder_node3"><g id="node_expander5" style="cursor: pointer;"><path id="kity_path_113" fill="white" stroke="gray" d="M264.5000100955367,68.50000121444464A6,6,0,1,1,252.5000100955367,68.50000121444464A6,6,0,1,1,264.5000100955367,68.50000121444464"></path><path id="kity_path_114" fill="none" stroke="gray" d="M254.0000100955367,68.50000121444464L263.0000100955367,68.50000121444464"></path></g><path id="node_outline6" fill="none" stroke="none" d="M269.5000102594495,59.50000121444464h50a5,5,0,0,1,5,5v8a5,5,0,0,1,-5,5h-50a5,5,0,0,1,-5,-5v-8a5,5,0,0,1,5,-5z" stroke-width="3"></path><g id="node_text6" fill="black"><text id="kity_text_67" text-rendering="inherit" font-size="12" dy=".8em" y="60.70000118762255" x="269.5000102594495">整数类型</text></g></g><g id="minder_node4"><g id="node_expander1" style="cursor: pointer;" display="none"><path id="kity_path_101" fill="white" stroke="gray" d="M340.50001122802496,29.50000063329935A6,6,0,1,1,328.50001122802496,29.50000063329935A6,6,0,1,1,340.50001122802496,29.50000063329935"></path><path id="kity_path_102" fill="none" stroke="gray"></path></g><path id="node_outline2" fill="none" stroke="none" d="M345.50001139193773,20.50000063329935h77a5,5,0,0,1,5,5v8a5,5,0,0,1,-5,5h-77a5,5,0,0,1,-5,-5v-8a5,5,0,0,1,5,-5z"></path><g id="node_text2" fill="black"><text id="kity_text_59" text-rendering="inherit" font-size="12" dy=".8em" y="21.70000060647726" x="345.50001139193773">byte（1字节）</text></g></g><g id="minder_node5"><g id="node_expander2" style="cursor: pointer;" display="none"><path id="kity_path_104" fill="white" stroke="gray" d="M340.50001122802496,55.50000102072954A6,6,0,1,1,328.50001122802496,55.50000102072954A6,6,0,1,1,340.50001122802496,55.50000102072954"></path><path id="kity_path_105" fill="none" stroke="gray"></path></g><path id="node_outline3" fill="none" stroke="none" d="M345.50001139193773,46.50000102072954h81a5,5,0,0,1,5,5v8a5,5,0,0,1,-5,5h-81a5,5,0,0,1,-5,-5v-8a5,5,0,0,1,5,-5z"></path><g id="node_text3" fill="black"><text id="kity_text_61" text-rendering="inherit" font-size="12" dy=".8em" y="47.70000099390745" x="345.50001139193773">short（2字节）</text></g></g><g id="minder_node6"><g id="node_expander3" style="cursor: pointer;" display="none"><path id="kity_path_107" fill="white" stroke="gray" d="M340.50001122802496,81.50000140815973A6,6,0,1,1,328.50001122802496,81.50000140815973A6,6,0,1,1,340.50001122802496,81.50000140815973"></path><path id="kity_path_108" fill="none" stroke="gray"></path></g><path id="node_outline4" fill="none" stroke="none" d="M345.50001139193773,72.50000140815973h67a5,5,0,0,1,5,5v8a5,5,0,0,1,-5,5h-67a5,5,0,0,1,-5,-5v-8a5,5,0,0,1,5,-5z"></path><g id="node_text4" fill="black"><text id="kity_text_63" text-rendering="inherit" font-size="12" dy=".8em" y="73.70000138133764" x="345.50001139193773">int（4字节）</text></g></g><g id="minder_node7"><g id="node_expander4" style="cursor: pointer;" display="none"><path id="kity_path_110" fill="white" stroke="gray" d="M340.50001122802496,107.50000179558992A6,6,0,1,1,328.50001122802496,107.50000179558992A6,6,0,1,1,340.50001122802496,107.50000179558992"></path><path id="kity_path_111" fill="none" stroke="gray"></path></g><path id="node_outline5" fill="none" stroke="none" d="M345.50001139193773,98.50000179558992h77a5,5,0,0,1,5,5v8a5,5,0,0,1,-5,5h-77a5,5,0,0,1,-5,-5v-8a5,5,0,0,1,5,-5z"></path><g id="node_text5" fill="black"><text id="kity_text_65" text-rendering="inherit" font-size="12" dy=".8em" y="99.70000176876783" x="345.50001139193773">long（8字节）</text></g></g><g id="minder_node8"><g id="node_expander8" style="cursor: pointer;"><path id="kity_path_122" fill="white" stroke="gray" d="M264.5000100955367,146.5000023767352A6,6,0,1,1,252.5000100955367,146.5000023767352A6,6,0,1,1,264.5000100955367,146.5000023767352"></path><path id="kity_path_123" fill="none" stroke="gray" d="M254.0000100955367,146.5000023767352L263.0000100955367,146.5000023767352"></path></g><path id="node_outline9" fill="none" stroke="none" d="M269.5000102594495,137.5000023767352h50a5,5,0,0,1,5,5v8a5,5,0,0,1,-5,5h-50a5,5,0,0,1,-5,-5v-8a5,5,0,0,1,5,-5z"></path><g id="node_text9" fill="black"><text id="kity_text_73" text-rendering="inherit" font-size="12" dy=".8em" y="138.70000234991312" x="269.5000102594495">浮点类型</text></g></g><g id="minder_node9"><g id="node_expander6" style="cursor: pointer;" display="none"><path id="kity_path_116" fill="white" stroke="gray" d="M340.50001122802496,133.50000218302011A6,6,0,1,1,328.50001122802496,133.50000218302011A6,6,0,1,1,340.50001122802496,133.50000218302011"></path><path id="kity_path_117" fill="none" stroke="gray"></path></g><path id="node_outline7" fill="none" stroke="none" d="M345.50001139193773,124.50000218302011h78a5,5,0,0,1,5,5v8a5,5,0,0,1,-5,5h-78a5,5,0,0,1,-5,-5v-8a5,5,0,0,1,5,-5z"></path><g id="node_text7" fill="black"><text id="kity_text_69" text-rendering="inherit" font-size="12" dy=".8em" y="125.70000215619802" x="345.50001139193773">float（4字节）</text></g></g><g id="minder_node10"><g id="node_expander7" style="cursor: pointer;" display="none"><path id="kity_path_119" fill="white" stroke="gray" d="M340.50001122802496,159.5000025704503A6,6,0,1,1,328.50001122802496,159.5000025704503A6,6,0,1,1,340.50001122802496,159.5000025704503"></path><path id="kity_path_120" fill="none" stroke="gray"></path></g><path id="node_outline8" fill="none" stroke="none" d="M345.50001139193773,150.5000025704503h91a5,5,0,0,1,5,5v8a5,5,0,0,1,-5,5h-91a5,5,0,0,1,-5,-5v-8a5,5,0,0,1,5,-5z"></path><g id="node_text8" fill="black"><text id="kity_text_71" text-rendering="inherit" font-size="12" dy=".8em" y="151.70000254362822" x="345.50001139193773">double（8字节）</text></g></g><g id="minder_node11"><g id="node_expander10" style="cursor: pointer;"><path id="kity_path_128" fill="white" stroke="gray" d="M264.5000100955367,185.5000029578805A6,6,0,1,1,252.5000100955367,185.5000029578805A6,6,0,1,1,264.5000100955367,185.5000029578805"></path><path id="kity_path_129" fill="none" stroke="gray" d="M254.0000100955367,185.5000029578805L263.0000100955367,185.5000029578805"></path></g><path id="node_outline11" fill="none" stroke="none" d="M269.5000102594495,176.5000029578805h49a5,5,0,0,1,5,5v8a5,5,0,0,1,-5,5h-49a5,5,0,0,1,-5,-5v-8a5,5,0,0,1,5,-5z"></path><g id="node_text11" fill="black"><text id="kity_text_77" text-rendering="inherit" font-size="12" dy=".8em" y="177.7000029310584" x="269.5000102594495">字符类型</text></g></g><g id="minder_node12"><g id="node_expander9" style="cursor: pointer;" display="none"><path id="kity_path_125" fill="white" stroke="gray" d="M339.5000112131238,185.5000029578805A6,6,0,1,1,327.5000112131238,185.5000029578805A6,6,0,1,1,339.5000112131238,185.5000029578805"></path><path id="kity_path_126" fill="none" stroke="gray"></path></g><path id="node_outline10" fill="none" stroke="none" d="M344.50001137703657,176.5000029578805h78a5,5,0,0,1,5,5v8a5,5,0,0,1,-5,5h-78a5,5,0,0,1,-5,-5v-8a5,5,0,0,1,5,-5z"></path><g id="node_text10" fill="black"><text id="kity_text_75" text-rendering="inherit" font-size="12" dy=".8em" y="177.7000029310584" x="344.50001137703657">char（2字节）</text></g></g><g id="minder_node13"><g id="node_expander12" style="cursor: pointer;"><path id="kity_path_134" fill="white" stroke="gray" d="M264.5000100955367,224.50000353902578A6,6,0,1,1,252.5000100955367,224.50000353902578A6,6,0,1,1,264.5000100955367,224.50000353902578"></path><path id="kity_path_135" fill="none" stroke="gray" d="M254.0000100955367,224.50000353902578L263.0000100955367,224.50000353902578"></path></g><path id="node_outline13" fill="none" stroke="none" d="M269.5000102594495,215.50000353902578h50a5,5,0,0,1,5,5v8a5,5,0,0,1,-5,5h-50a5,5,0,0,1,-5,-5v-8a5,5,0,0,1,5,-5z"></path><g id="node_text13" fill="black"><text id="kity_text_81" text-rendering="inherit" font-size="12" dy=".8em" y="216.7000035122037" x="269.5000102594495">逻辑类型</text></g></g><g id="minder_node14"><g id="node_expander11" style="cursor: pointer;"><path id="kity_path_131" fill="white" stroke="gray" d="M340.50001122802496,224.50000353902578A6,6,0,1,1,328.50001122802496,224.50000353902578A6,6,0,1,1,340.50001122802496,224.50000353902578"></path><path id="kity_path_132" fill="none" stroke="gray" d="M330.00001122802496,224.50000353902578L339.00001122802496,224.50000353902578"></path></g><path id="node_outline12" fill="none" stroke="none" d="M345.50001139193773,215.50000353902578h97a5,5,0,0,1,5,5v8a5,5,0,0,1,-5,5h-97a5,5,0,0,1,-5,-5v-8a5,5,0,0,1,5,-5z" stroke-width="3"></path><g id="node_text12" fill="black"><text id="kity_text_79" text-rendering="inherit" font-size="12" dy=".8em" y="216.7000035122037" x="345.50001139193773">boolean（1字节）</text></g></g><g id="minder_node15"><path id="kity_path_191" fill="rgba(0, 0, 0, .25)" stroke="none" d="M144.5000084117055,424.50000662356615h106a5,5,0,0,1,5,5v14a5,5,0,0,1,-5,5h-106a5,5,0,0,1,-5,-5v-14a5,5,0,0,1,5,-5z" display="none"></path><g id="node_expander14" style="cursor: pointer;"><path id="kity_path_140" fill="white" stroke="gray" d="M124.50000800937414,431.50000662356615A6,6,0,1,1,112.50000800937414,431.50000662356615A6,6,0,1,1,124.50000800937414,431.50000662356615"></path><path id="kity_path_141" fill="none" stroke="gray" d="M114.00000800937414,431.50000662356615L123.00000800937414,431.50000662356615"></path></g><path id="node_outline15" fill="rgb(238, 243, 246)" stroke="rgb(115, 161, 191)" d="M128.5000084117055,418.50000662356615h118a3,3,0,0,1,3,3v20a3,3,0,0,1,-3,3h-118a3,3,0,0,1,-3,-3v-20a3,3,0,0,1,3,-3z" stroke-width="1"></path><g id="node_text15" fill="black"><text id="kity_text_85" text-rendering="inherit" font-size="14" dy=".8em" y="422.4000065922737" x="145.5000084117055">引用数据类型</text></g></g><g id="minder_node16"><g id="node_expander15" style="cursor: pointer;" display="none"><path id="kity_path_148" fill="white" stroke="gray" d="M463.5000130608678,211.5000033453107A6,6,0,1,1,451.5000130608678,211.5000033453107A6,6,0,1,1,463.5000130608678,211.5000033453107"></path><path id="kity_path_149" fill="none" stroke="gray"></path></g><path id="node_outline16" fill="none" stroke="none" d="M468.50001322478056,202.5000033453107h22a5,5,0,0,1,5,5v8a5,5,0,0,1,-5,5h-22a5,5,0,0,1,-5,-5v-8a5,5,0,0,1,5,-5z" stroke-width="3"></path><g id="node_text16" fill="black"><text id="kity_text_145" text-rendering="inherit" font-size="12" dy=".8em" y="203.7000033184886" x="468.50001322478056">true</text></g></g><g id="minder_node17"><g id="node_expander16" style="cursor: pointer;" display="none"><path id="kity_path_156" fill="white" stroke="gray" d="M463.5000130608678,237.50000373274088A6,6,0,1,1,451.5000130608678,237.50000373274088A6,6,0,1,1,463.5000130608678,237.50000373274088"></path><path id="kity_path_157" fill="none" stroke="gray"></path></g><path id="node_outline17" fill="none" stroke="none" d="M468.50001322478056,228.50000373274088h27a5,5,0,0,1,5,5v8a5,5,0,0,1,-5,5h-27a5,5,0,0,1,-5,-5v-8a5,5,0,0,1,5,-5z" stroke-width="3"></path><g id="node_text17" fill="black"><text id="kity_text_153" text-rendering="inherit" font-size="12" dy=".8em" y="229.7000037059188" x="468.50001322478056">false</text></g></g><g id="minder_node18"><g id="node_expander17" style="cursor: pointer;"><path id="kity_path_164" fill="white" stroke="gray" d="M265.50001011043787,405.50000623613596A6,6,0,1,1,253.50001011043787,405.50000623613596A6,6,0,1,1,265.50001011043787,405.50000623613596"></path><path id="kity_path_165" fill="none" stroke="gray" d="M255.00001011043787,405.50000623613596L264.00001011043787,405.50000623613596"></path></g><path id="node_outline18" fill="none" stroke="none" d="M270.50001027435064,396.50000623613596h63a5,5,0,0,1,5,5v8a5,5,0,0,1,-5,5h-63a5,5,0,0,1,-5,-5v-8a5,5,0,0,1,5,-5z" stroke-width="3"></path><g id="node_text18" fill="black"><text id="kity_text_161" text-rendering="inherit" font-size="12" dy=".8em" y="397.70000620931387" x="270.50001027435064">class（类）</text></g></g><g id="minder_node19"><g id="node_expander18" style="cursor: pointer;" display="none"><path id="kity_path_172" fill="white" stroke="gray" d="M265.50001011043787,431.50000662356615A6,6,0,1,1,253.50001011043787,431.50000662356615A6,6,0,1,1,265.50001011043787,431.50000662356615"></path><path id="kity_path_173" fill="none" stroke="gray"></path></g><path id="node_outline19" fill="none" stroke="none" d="M270.50001027435064,422.50000662356615h94a5,5,0,0,1,5,5v8a5,5,0,0,1,-5,5h-94a5,5,0,0,1,-5,-5v-8a5,5,0,0,1,5,-5z" stroke-width="3"></path><g id="node_text19" fill="black"><text id="kity_text_169" text-rendering="inherit" font-size="12" dy=".8em" y="423.70000659674406" x="270.50001027435064">interface（接口）</text></g></g><g id="minder_node20"><g id="node_expander19" style="cursor: pointer;" display="none"><path id="kity_path_180" fill="white" stroke="gray" d="M265.50001011043787,457.50000701099634A6,6,0,1,1,253.50001011043787,457.50000701099634A6,6,0,1,1,265.50001011043787,457.50000701099634"></path><path id="kity_path_181" fill="none" stroke="gray"></path></g><path id="node_outline20" fill="none" stroke="none" d="M270.50001027435064,448.50000701099634h26a5,5,0,0,1,5,5v8a5,5,0,0,1,-5,5h-26a5,5,0,0,1,-5,-5v-8a5,5,0,0,1,5,-5z" stroke-width="3"></path><g id="node_text20" fill="black"><text id="kity_text_177" text-rendering="inherit" font-size="12" dy=".8em" y="449.70000698417425" x="270.50001027435064">数组</text></g></g><g id="minder_node21"><g id="node_expander20" style="cursor: pointer;" display="none"><path id="kity_path_188" fill="white" stroke="gray" d="M354.5000114366412,405.50000623613596A6,6,0,1,1,342.5000114366412,405.50000623613596A6,6,0,1,1,354.5000114366412,405.50000623613596"></path><path id="kity_path_189" fill="none" stroke="gray"></path></g><path id="node_outline21" fill="none" stroke="none" d="M359.500011600554,396.50000623613596h128a5,5,0,0,1,5,5v8a5,5,0,0,1,-5,5h-128a5,5,0,0,1,-5,-5v-8a5,5,0,0,1,5,-5z" stroke-width="3"></path><g id="node_text21" fill="black"><text id="kity_text_185" text-rendering="inherit" font-size="12" dy=".8em" y="397.70000620931387" x="359.500011600554">String（字符串）属于类</text></g></g></g></g></svg>